<svg width="13" height="23" viewBox="0 0 13 23" fill="none" xmlns="http://www.w3.org/2000/svg">
<path d="M11.5 0H4.5C3.67285 0 3 0.672848 3 1.5V14.5C3 15.3272 3.67285 16 4.5 16H11.5C12.3272 16 13 15.3272 13 14.5V1.5C13 0.672848 12.3272 0 11.5 0ZM4.5 1H11.5C11.7759 1 12 1.22412 12 1.5V12H4V1.5C4 1.22412 4.22412 1 4.5 1ZM11.5 15H4.5C4.22412 15 4 14.7759 4 14.5V13H12V14.5C12 14.7759 11.7759 15 11.5 15Z" fill="#757575"/>
<g filter="url(#filter0_d)">
<path d="M5.35355 13.7389C5.54882 13.9213 5.54882 14.2169 5.35355 14.3992C5.15828 14.5816 4.84172 14.5816 4.64645 14.3992C4.45118 14.2169 4.45118 13.9213 4.64645 13.7389C4.84172 13.5566 5.15828 13.5566 5.35355 13.7389Z" fill="#757575"/>
</g>
<defs>
<filter id="filter0_d" x="0.5" y="13.6022" width="9" height="8.93382" filterUnits="userSpaceOnUse" color-interpolation-filters="sRGB">
<feFlood flood-opacity="0" result="BackgroundImageFix"/>
<feColorMatrix in="SourceAlpha" type="matrix" values="0 0 0 0 0 0 0 0 0 0 0 0 0 0 0 0 0 0 127 0"/>
<feOffset dy="4"/>
<feGaussianBlur stdDeviation="2"/>
<feColorMatrix type="matrix" values="0 0 0 0 0 0 0 0 0 0 0 0 0 0 0 0 0 0 0.25 0"/>
<feBlend mode="normal" in2="BackgroundImageFix" result="effect1_dropShadow"/>
<feBlend mode="normal" in="SourceGraphic" in2="effect1_dropShadow" result="shape"/>
</filter>
</defs>
</svg>
