<svg width="226" height="90" viewBox="0 0 226 90" fill="none" xmlns="http://www.w3.org/2000/svg">
<rect x="0.5" y="0.5" width="225" height="89" rx="3.5" stroke="#AFB1B8"/>
<path d="M88.4876 61.2778C88.7175 61.5634 88.84 61.9212 88.8336 62.2884C88.8453 62.528 88.8032 62.7671 88.7104 62.988C88.6176 63.209 88.4765 63.4062 88.2975 63.565C87.851 63.9037 87.2977 64.0692 86.7393 64.0313H84V57.6263H86.6832C87.2129 57.5909 87.7383 57.7413 88.1698 58.0518C88.3431 58.1974 88.4803 58.3815 88.5706 58.5895C88.6609 58.7974 88.7019 59.0236 88.6902 59.2502C88.706 59.6035 88.5954 59.9509 88.3786 60.2296C88.1704 60.4841 87.8826 60.6605 87.5621 60.7302C87.9255 60.7968 88.2535 60.9909 88.4876 61.2778ZM85.2746 60.3109H86.4215C86.6821 60.3303 86.941 60.2548 87.1507 60.0982C87.2368 60.0198 87.3038 59.9226 87.3465 59.8141C87.3892 59.7056 87.4064 59.5887 87.3969 59.4724C87.405 59.3565 87.3874 59.2403 87.3453 59.1321C87.3033 59.0239 87.2379 58.9264 87.1538 58.8466C86.9378 58.6856 86.6709 58.6088 86.4028 58.6307H85.2746V60.3109ZM87.2629 62.7672C87.3549 62.6869 87.4273 62.5865 87.4743 62.4736C87.5213 62.3607 87.5418 62.2385 87.534 62.1163C87.541 61.9928 87.5197 61.8693 87.4716 61.7554C87.4235 61.6414 87.35 61.5401 87.2567 61.4593C87.0323 61.2922 86.7563 61.2102 86.4776 61.2277H85.2746V62.9893H86.4931C86.7674 63.0052 87.0389 62.9269 87.2629 62.7672Z" fill="#AFB1B8"/>
<path d="M93.9724 64.0313L92.4797 61.5281H91.9187V64.0313H90.6348V57.6263H93.0656C93.6783 57.5834 94.284 57.7783 94.7578 58.1708C95.0976 58.5184 95.3025 58.9764 95.3357 59.4624C95.3688 59.9483 95.228 60.4301 94.9385 60.821C94.6386 61.1659 94.229 61.3959 93.7792 61.4718L95.3686 64.0313H93.9724ZM91.9187 60.6552H92.969C93.6982 60.6552 94.0628 60.3318 94.0628 59.6852C94.0703 59.5531 94.0503 59.421 94.0041 59.2971C93.958 59.1732 93.8867 59.0603 93.7948 58.9655C93.5644 58.7731 93.2676 58.6798 92.969 58.7058H91.9063L91.9187 60.6552Z" fill="#AFB1B8"/>
<path d="M100.991 62.742H98.4322L97.9803 64.0311H96.634L98.9838 57.6981H100.439L102.78 64.0311H101.433L100.991 62.742ZM100.648 61.772L99.7131 59.0686L98.7781 61.772H100.648Z" fill="#AFB1B8"/>
<path d="M109.776 64.0312H108.501L105.644 59.6757V64.0312H104.372V57.6262H105.644L108.501 62.0068V57.6262H109.776V64.0312Z" fill="#AFB1B8"/>
<path d="M117.05 62.4981C116.786 62.9817 116.385 63.375 115.897 63.6276C115.342 63.909 114.726 64.0477 114.105 64.0313H111.836V57.6263H114.105C114.725 57.61 115.34 57.7453 115.897 58.0206C116.385 58.2674 116.787 58.6569 117.05 59.1376C117.312 59.6585 117.449 60.2341 117.449 60.8178C117.449 61.4016 117.312 61.9772 117.05 62.4981ZM115.591 62.3448C115.955 61.9193 116.155 61.377 116.155 60.8163C116.155 60.2555 115.955 59.7133 115.591 59.2878C115.152 58.9024 114.578 58.7067 113.996 58.7433H113.111V62.8892H113.996C114.578 62.9258 115.152 62.7302 115.591 62.3448Z" fill="#AFB1B8"/>
<path d="M101.789 22C101.789 22 118.24 28.236 117.891 37.2599V52.5229C117.891 52.5229 101.452 46.2838 101.795 37.2599L101.789 22Z" fill="#AFB1B8"/>
<path d="M132.548 48.9496C135.655 46.8028 139.249 45.4731 143 45.0822V40.3043C138.677 41.977 135.01 45.0101 132.548 48.9496Z" fill="#AFB1B8"/>
<path d="M130.681 50.389C133.224 45.2478 137.633 41.2805 143 39.3032V25.5358C143 25.5358 119.571 34.4189 120.066 47.2695V69C120.066 69 121.11 68.6027 122.753 67.858C122.753 67.1633 122.753 66.4625 122.827 65.7584C123.312 59.7926 126.137 54.2643 130.681 50.389Z" fill="#AFB1B8"/>
<path d="M128.453 58.4617C128.576 56.9546 128.85 55.4639 129.272 54.0123C126.443 57.3589 124.73 61.5117 124.373 65.8867C124.339 66.2997 124.32 66.7127 124.311 67.1383C125.642 66.4968 127.19 65.6958 128.817 64.754C128.402 62.6842 128.279 60.5659 128.453 58.4617Z" fill="#AFB1B8"/>
<path d="M129.384 58.54C129.228 60.4437 129.326 62.3599 129.674 64.2378C136.075 60.3923 143.268 54.4504 142.991 47.2695V46.6437C138.417 47.1575 134.138 49.1648 130.812 52.3571C130.033 54.3355 129.552 56.4193 129.384 58.54Z" fill="#AFB1B8"/>
</svg>
